<?xml version="1.0" encoding="utf-8"?>
<!-- Generator: Adobe Illustrator 23.1.0, SVG Export Plug-In . SVG Version: 6.00 Build 0)  -->
<svg version="1.1" id="Layer_1" xmlns="http://www.w3.org/2000/svg" xmlns:xlink="http://www.w3.org/1999/xlink" x="0px" y="0px"
	 viewBox="0 0 512 512" style="enable-background:new 0 0 512 512;" xml:space="preserve">
<style type="text/css">
	.st0{fill:#FF7F00;}
</style>
<g id="Page-1">
	<g>
		<path id="Shape" class="st0" d="M33.6,507.8h151.1c13.9,0,25.2-11.3,25.2-25.2V449c0-37.1-30.1-67.1-67.1-67.1V372
			c3-2.9,6-6.1,9-9.7c7.4-8.8,12.1-19.5,13.4-30.9c7-7.8,10.9-17.9,11.1-28.4c0.1-7.8-3.9-15.1-10.7-19v-4
			c-0.6-27.7-23.4-49.7-51.1-49.2h-10.7c-27.7-0.5-50.5,21.5-51.1,49.2v4c-6.7,3.9-10.8,11.2-10.7,19c0.2,10.5,4.1,20.6,11.1,28.4
			c1.3,11.4,6,22.2,13.4,30.9c3.1,3.6,6.1,6.8,9,9.7v9.9C38.4,381.9,8.4,412,8.4,449v33.6c0,6.7,2.7,13.1,7.4,17.8
			C20.5,505.2,26.9,507.8,33.6,507.8z M69.5,325.7c-0.1-3.1-1.8-5.8-4.5-7.3c-0.6-0.3-1.2-0.5-1.8-0.7c-2.6-4.5-4.1-9.6-4.4-14.8
			c0-2.7,1.5-4.4,2.3-4.4c4.6,0,8.4-3.8,8.4-8.4V280c0.6-18.4,15.9-32.9,34.3-32.4h10.7c18.4-0.5,33.8,14,34.3,32.4v10.2
			c0,4.6,3.8,8.4,8.4,8.4c0.8,0,2.3,1.7,2.3,4.4c-0.4,5.2-1.9,10.3-4.4,14.8c-0.8,0.2-1.5,0.5-2.2,0.9c-2.5,1.5-4,4.1-4.1,7
			c-0.3,9.5-3.7,18.5-9.9,25.7c-11.7,13.9-22.9,22.1-29.8,22.1c-6.9,0-18.1-8.3-29.8-22.1C73.2,344.2,69.7,335.1,69.5,325.7
			L69.5,325.7z M109.1,390.3c5.9-0.2,11.7-2,16.8-5.1v13.5c0.2,4.5-1.5,8.9-4.7,12.1c-3.2,3.2-7.6,4.9-12.1,4.7
			c-4.5,0.2-8.9-1.5-12.1-4.7c-3.2-3.2-4.9-7.6-4.7-12.1v-13.5C97.4,388.3,103.2,390.1,109.1,390.3z M25.2,449
			c0-27.8,22.6-50.3,50.4-50.4c-0.2,9,3.3,17.6,9.6,24c6.3,6.3,15,9.8,24,9.6c9,0.2,17.6-3.3,24-9.6s9.8-15,9.6-24
			c27.8,0,50.3,22.6,50.4,50.4v33.6c0,4.6-3.8,8.4-8.4,8.4H33.6c-4.6,0-8.4-3.8-8.4-8.4V449z"/>
		<path class="st0" d="M486.8,4.2H218.2c-13.9,0-25.2,11.3-25.2,25.2v8.4H33.6C19.7,37.8,8.4,49,8.4,63v75.5
			c0,13.9,11.3,25.2,25.2,25.2h16.8v27.8c0,7.8,4,15.1,10.6,19.2c6.6,4.1,14.9,4.5,21.9,1l95.3-48h123.9c13.9,0,25.2-11.3,25.2-25.2
			v-8.4h14.8l95.3,48c7,3.5,15.3,3.1,21.9-1c6.6-4.1,10.7-11.3,10.7-19.1v-27.9h16.8c13.9,0,25.2-11.3,25.2-25.2V29.4
			C512,15.5,500.7,4.2,486.8,4.2L486.8,4.2z M310.6,138.5c0,4.6-3.8,8.4-8.4,8.4H117.5c-4.6,0-8.4,3.8-8.4,8.4
			c0,4.6,3.8,8.4,8.4,8.4h23.4l-65.5,33c-1.8,0.9-3.9,0.8-5.5-0.3c-1.7-1-2.8-2.9-2.7-4.9v-27.8h16.8c4.6,0,8.4-3.8,8.4-8.4
			c0-4.6-3.8-8.4-8.4-8.4H33.6c-4.6,0-8.4-3.8-8.4-8.4V63c0-4.6,3.8-8.4,8.4-8.4h268.6c4.6,0,8.4,3.8,8.4,8.4V138.5z M495.2,104.9
			c0,4.6-3.8,8.4-8.4,8.4h-50.4c-4.6,0-8.4,3.8-8.4,8.4c0,4.6,3.8,8.4,8.4,8.4h16.8V158c0,2-1,3.8-2.7,4.8c-1.7,1-3.8,1.1-5.5,0.2
			l-65.5-33h23.4c4.6,0,8.4-3.8,8.4-8.4c0-4.6-3.8-8.4-8.4-8.4h-75.5V63c0-13.9-11.3-25.2-25.2-25.2h-92.3v-8.4
			c0-4.6,3.8-8.4,8.4-8.4h268.6c4.6,0,8.4,3.8,8.4,8.4V104.9z"/>
		<path class="st0" d="M411.3,71.3h-58.8c-4.6,0-8.4,3.8-8.4,8.4s3.8,8.4,8.4,8.4h58.8c4.6,0,8.4-3.8,8.4-8.4S415.9,71.3,411.3,71.3
			z"/>
		<path class="st0" d="M461.6,37.8H344.1c-4.6,0-8.4,3.8-8.4,8.4s3.8,8.4,8.4,8.4h117.5c4.6,0,8.4-3.8,8.4-8.4
			S466.3,37.8,461.6,37.8z"/>
		<path class="st0" d="M167.9,104.9H58.8c-4.6,0-8.4,3.8-8.4,8.4s3.8,8.4,8.4,8.4h109.1c4.6,0,8.4-3.8,8.4-8.4
			S172.5,104.9,167.9,104.9z"/>
		<path class="st0" d="M277,71.3H58.8c-4.6,0-8.4,3.8-8.4,8.4s3.8,8.4,8.4,8.4H277c4.6,0,8.4-3.8,8.4-8.4S281.6,71.3,277,71.3z"/>
		<path class="st0" d="M496.8,407.6c7.6-10.9,8.9-25,3.4-37.1c-5.5-12.1-17-20.4-30.2-21.8v-37.7c0,0,0-0.1,0-0.1v-26
			c-0.2-34.6-28.3-62.6-63-62.5h-8.4c-34.6-0.1-62.8,27.9-63,62.5v63.8c-13.2,1.4-24.7,9.7-30.2,21.8c-5.5,12.1-4.2,26.2,3.4,37.1
			c-9.5,6.2-15.2,16.7-15.2,28.1v47c0,13.9,11.3,25.2,25.2,25.2h167.9c13.9,0,25.2-11.3,25.2-25.2v-47
			C512,424.3,506.3,413.8,496.8,407.6z M486.8,386.1c0,5.9-2.6,11.6-7.1,15.5l-43.2-9.6v-21.4c6-7.7,11.1-16.1,15.2-25
			c0.6-0.3,1.1-0.5,1.6-0.8v28.8c0,4.6,3.8,8.4,8.4,8.4c4.6,0,8.4-3.8,8.4-8.4v-8C479.8,367.5,486.8,376.1,486.8,386.1z
			 M402.9,276.7c8.9,6.3,37.8,26.3,42.7,26.3c4.3,0.1,7.7,3.7,7.6,8v0.2c0,10.1-5.6,18.7-7.8,18.7c-3.3,0.1-6.3,2.2-7.6,5.3
			c-4,10-19,38.4-35,38.4c-15.9,0-30.9-28.4-35-38.4c-1.2-3.1-4.2-5.2-7.6-5.3c-2.2-0.1-7.9-8.7-7.8-18.9c-0.1-4.3,3.3-7.9,7.6-8
			C365.2,303,394.1,282.9,402.9,276.7z M386.1,385.5c10.3,6.4,23.3,6.4,33.6,0v13.2c0,9.3-7.5,16.8-16.8,16.8
			c-9.3,0-16.8-7.5-16.8-16.8V385.5z M398.7,239.2h8.4c25.4-0.1,46,20.3,46.2,45.7v2.5c-1.7-0.6-3.4-1-5.2-1.2
			c-5.9-3.5-27.7-17-37.4-24.7c-4.6-3.5-11-3.5-15.6,0.1c-9.6,7.6-31.4,21.1-37.4,24.6c-1.8,0.2-3.5,0.6-5.2,1.2v-2.5
			C352.7,259.5,373.3,239.1,398.7,239.2L398.7,239.2z M335.7,365.5v8c0,4.6,3.8,8.4,8.4,8.4c4.6,0,8.4-3.8,8.4-8.4v-28.9
			c0.5,0.3,1.1,0.6,1.7,0.8c4,8.9,9.1,17.3,15.1,25.1V392l-43.2,9.6c-4.5-3.9-7.1-9.5-7.1-15.5C319,376.1,326,367.5,335.7,365.5
			L335.7,365.5z M495.2,482.6c0,4.6-3.8,8.4-8.4,8.4H319c-4.6,0-8.4-3.8-8.4-8.4v-47c0-7.9,5.5-14.6,13.1-16.4l47.2-10.5
			c4.4,13.9,17.4,23.4,32,23.4c14.6,0,27.5-9.5,32-23.4l47.2,10.5c7.7,1.7,13.1,8.5,13.1,16.4L495.2,482.6z"/>
	</g>
</g>
</svg>
