<svg height="496pt" viewBox="0 0 496 496" width="496pt" xmlns="http://www.w3.org/2000/svg"><path d="m288 264v-8h16v-16h-16v-8.144531c0-2.464844 1.167969-4.808594 3.105469-6.253907 11.664062-8.730468 20.132812-20.402343 24.789062-33.601562h44.105469c30.878906 0 56-25.128906 56-56 0-28.273438-21.054688-51.71875-48.320312-55.480469-3.800782-45.03125-41.671876-80.519531-87.679688-80.519531-25.878906 0-49.121094 11.304688-65.230469 29.144531-11.097656-8.488281-24.5625-13.144531-38.769531-13.144531-35.289062 0-64 28.710938-64 64 0 1.792969.105469 3.574219.246094 5.359375-19.023438 8.960937-32.246094 28.265625-32.246094 50.640625 0 30.871094 25.121094 56 56 56h44.320312c4.664063 13.136719 12.96875 24.902344 24.535157 33.566406 1.96875 1.480469 3.144531 3.832032 3.144531 6.289063v8.144531h-16v16h16v8c0 13.230469 10.769531 24 24 24h32c13.230469 0 24-10.769531 24-24zm-111.105469-107.488281c-1.023437 6.550781-1.117187 13.097656-.390625 19.488281h-40.503906c-22.054688 0-40-17.945312-40-40s17.945312-40 40-40c7.039062 0 13.953125 1.847656 19.992188 5.34375l8.015624-13.839844c-8.472656-4.910156-18.160156-7.503906-28.007812-7.503906-2.703125 0-5.335938.257812-7.945312.632812 0-.21875-.054688-.425781-.054688-.632812 0-26.472656 21.527344-48 48-48 10.695312 0 20.832031 3.519531 29.167969 9.929688-8.296875 13.421874-13.167969 29.167968-13.167969 46.070312h16c0-39.703125 32.304688-72 72-72s72 32.296875 72 72v8h8c22.054688 0 40 17.945312 40 40s-17.945312 40-40 40h-40.464844c.296875-2.640625.464844-5.304688.464844-8 0-20.449219-8.742188-40-23.984375-53.648438-15.230469-13.640624-35.703125-20.167968-56.199219-17.894531-31.59375 3.496094-58.046875 28.75-62.921875 60.054688zm95.105469 107.488281c0 4.414062-3.59375 8-8 8h-32c-4.40625 0-8-3.585938-8-8v-8h48zm-32-96c0-4.414062 3.59375-8 8-8s8 3.585938 8 8-3.59375 8-8 8-8-3.585938-8-8zm32 63.855469v8.144531h-16v-49.472656c9.289062-3.3125 16-12.113282 16-22.527344 0-13.230469-10.769531-24-24-24s-24 10.769531-24 24c0 10.414062 6.710938 19.214844 16 22.527344v49.472656h-16v-8.144531c0-7.472657-3.566406-14.597657-9.542969-19.085938-16.640625-12.480469-24.976562-33.089843-21.746093-53.808593 3.777343-24.289063 24.335937-43.890626 48.863281-46.609376 2.179687-.230468 4.347656-.351562 6.488281-.351562 13.832031 0 26.875 4.953125 37.28125 14.265625 11.855469 10.613281 18.65625 25.832031 18.65625 41.734375 0 17.777344-8.191406 34.097656-22.496094 44.800781-5.953125 4.464844-9.503906 11.589844-9.503906 19.054688zm0 0"/><path d="m196.65625 401.121094-44.65625-14.890625v-11.117188c4.367188-4.464843 7.960938-9.671875 10.648438-15.386719 16.390624-1.367187 29.351562-14.984374 29.351562-31.726562v-54.703125c0-18.121094-11.273438-34.199219-28.183594-40.441406l-13.417968-10.046875c-12.726563-9.550782-28.496094-14.808594-44.398438-14.808594-40.808594 0-74 33.191406-74 74v46c0 16.742188 12.960938 30.359375 29.351562 31.726562 2.6875 5.714844 6.28125 10.921876 10.648438 15.386719v11.117188l-44.65625 14.882812c-16.351562 5.453125-27.34375 20.710938-27.34375 37.949219v56.9375h224v-56.9375c0-17.238281-10.992188-32.496094-27.34375-37.941406zm-39.9375 3.550781-15.582031 31.183594-16.953125-12.71875 21.984375-21.984375zm-44.71875 8.015625-24-24v-2.167969c7.289062 3.472657 15.398438 5.480469 24 5.480469s16.710938-2.007812 24-5.480469v2.167969zm40-76.6875c0 22.054688-17.945312 40-40 40s-40-17.945312-40-40v-32c0-4.414062 3.59375-8 8-8h64c4.40625 0 8 3.585938 8 8zm15.671875 5.953125c.207031-1.960937.328125-3.945313.328125-5.953125v-21.777344c4.761719 2.777344 8 7.882813 8 13.777344 0 6.023438-3.390625 11.222656-8.328125 13.953125zm-119.671875-13.953125c0-5.894531 3.238281-11 8-13.777344v21.777344c0 2.007812.121094 3.992188.328125 5.953125-4.9375-2.730469-8.328125-7.929687-8.328125-13.953125zm9.238281-31.246094c-3.316406.71875-6.390625 2.039063-9.238281 3.695313v-18.449219c0-31.984375 26.015625-58 58-58 12.464844 0 24.824219 4.121094 34.800781 11.601562l15.4375 11.574219 1.234375.410157c11.078125 3.703124 18.527344 14.03125 18.527344 25.710937v27.152344c-2.847656-1.664063-5.921875-2.984375-9.238281-3.707031-3.097657-9.671876-12.074219-16.742188-22.761719-16.742188h-64c-10.6875 0-19.664062 7.070312-22.761719 16.753906zm20.601563 104.398438 21.984375 21.984375-16.953125 12.71875-15.589844-31.183594zm130.160156 78.847656h-32v-32h-16v32h-96v-32h-16v32h-32v-40.9375c0-10.34375 6.59375-19.496094 16.40625-22.773438l19.539062-6.511718 25.183594 50.367187 34.871094-26.144531 34.863281 26.144531 25.183594-50.367187 19.539063 6.511718c9.820312 3.277344 16.414062 12.429688 16.414062 22.773438zm0 0"/><path d="m468.65625 401.121094-44.65625-14.890625v-11.117188c4.367188-4.464843 7.960938-9.671875 10.648438-15.386719 16.390624-1.367187 29.351562-14.984374 29.351562-31.726562v-46c0-40.808594-33.191406-74-74-74-15.902344 0-31.671875 5.257812-44.398438 14.808594l-13.417968 10.054687c-16.910156 6.234375-28.183594 22.3125-28.183594 40.433594v54.703125c0 16.742188 12.960938 30.359375 29.351562 31.726562 2.6875 5.714844 6.28125 10.921876 10.648438 15.386719v11.117188l-44.65625 14.882812c-16.351562 5.453125-27.34375 20.710938-27.34375 37.949219v56.9375h224v-56.9375c0-17.238281-10.992188-32.496094-27.34375-37.941406zm-39.9375 3.550781-15.582031 31.183594-16.953125-12.71875 21.984375-21.984375zm-4.71875-68.671875c0 22.054688-17.945312 40-40 40s-40-17.945312-40-40v-40.367188c14.265625-1.296874 27.953125-6.082031 40-14.023437 12.046875 7.941406 25.734375 12.726563 40 14.023437zm15.671875 5.953125c.207031-1.960937.328125-3.945313.328125-5.953125v-21.777344c4.761719 2.777344 8 7.882813 8 13.777344 0 6.023438-3.390625 11.222656-8.328125 13.953125zm-119.671875-13.953125c0-5.894531 3.238281-11 8-13.777344v21.777344c0 2.007812.121094 3.992188.328125 5.953125-4.9375-2.730469-8.328125-7.929687-8.328125-13.953125zm16-48h-8v17.136719c-2.847656.742187-5.519531 1.863281-8 3.3125v-27.152344c0-11.679687 7.449219-22.007813 18.527344-25.710937l1.234375-.410157 15.4375-11.574219c9.976562-7.488281 22.335937-11.601562 34.800781-11.601562 31.984375 0 58 26.015625 58 58v18.449219c-2.480469-1.449219-5.152344-2.578125-8-3.3125v-17.136719h-8c-14.121094 0-27.785156-4.144531-39.527344-11.96875l-8.472656-5.648438-8.472656 5.648438c-11.742188 7.824219-25.40625 11.96875-39.527344 11.96875zm13.839844 121.152344 21.984375 21.984375-16.953125 12.71875-15.582032-31.183594zm26.160156 78.847656h-40v-32h-16v32h-32v-40.9375c0-10.34375 6.59375-19.496094 16.40625-22.773438l19.539062-6.511718 25.183594 50.367187 26.871094-20.144531zm-16-91.3125v-2.167969c7.289062 3.472657 15.398438 5.480469 24 5.480469s16.710938-2.007812 24-5.480469v2.167969l-24 24zm120 91.3125h-32v-32h-16v32h-40v-40l26.863281 20.144531 25.183594-50.367187 19.539063 6.511718c9.820312 3.277344 16.414062 12.429688 16.414062 22.773438zm0 0"/></svg>