<?xml version="1.0"?>
<svg xmlns="http://www.w3.org/2000/svg" viewBox="0 0 64 64" width="512" height="512"><g id="man-learning-laptop-books-online_learning" data-name="man-learning-laptop-books-online learning"><rect x="51" y="29" width="2" height="2"/><path d="M59,22H45a2.963,2.963,0,0,0-2.3,1.1,2.973,2.973,0,0,0-.97-.45L36,21.22V18.74A7.01,7.01,0,0,0,39,13V12h1a1,1,0,0,0,1-1,9,9,0,0,0-18,0,1,1,0,0,0,1,1h1v1a7.01,7.01,0,0,0,3,5.74v2.48l-5.73,1.43A3,3,0,0,0,20,25.56V36H13.82A3,3,0,0,0,14,35a2.974,2.974,0,0,0-.78-2A2.974,2.974,0,0,0,14,31a3,3,0,0,0-.18-1H15a1,1,0,0,0,1-1V26a1,1,0,0,0,1-1V19.82l2.35-.88a1,1,0,0,0,0-1.88l-8-3a1.051,1.051,0,0,0-.7,0l-8,3a1,1,0,0,0,0,1.88L5,19.82v4.96A2.937,2.937,0,0,0,4.18,28H3a1,1,0,0,0-1,1V43a1,1,0,0,0,1,1H6V61a1,1,0,0,0,1,1h4a1,1,0,0,0,1-1V44h9v3a3,3,0,0,0,2.14,2.86A5.388,5.388,0,0,0,23,51V61a1,1,0,0,0,1,1H40a1,1,0,0,0,1-1V51a5.388,5.388,0,0,0-.14-1.14A3,3,0,0,0,43,47V44h9V61a1,1,0,0,0,1,1h4a1,1,0,0,0,1-1V44h3a1,1,0,0,0,1-1V25A3.009,3.009,0,0,0,59,22ZM25.07,10a7,7,0,0,1,13.86,0H38.3L35.55,8.17a.975.975,0,0,0-.92-.1L30.48,9.73l-.59-1.18a1.024,1.024,0,0,0-.63-.52,1,1,0,0,0-.81.14L25.7,10ZM27,13V11.54l1.61-1.08.5.99A.981.981,0,0,0,30,12a.971.971,0,0,0,.37-.07l4.51-1.81L37,11.54V13a5,5,0,0,1-10,0Zm7,6.71V22a2,2,0,0,1-4,0V19.71a7.042,7.042,0,0,0,4,0ZM22,25.56a1,1,0,0,1,.76-.97l5.45-1.36a3.978,3.978,0,0,0,7.58,0l5.45,1.36a1,1,0,0,1,.76.97V32H39a1,1,0,0,0-1,1,4.924,4.924,0,0,0,1.03,3H36V33a1,1,0,0,0-1-1H33.62l-1.73-3.45-1.78.9L31.38,32H28V28H26v5a1,1,0,0,0,1,1h7v2H22ZM42,34v1.83A3.016,3.016,0,0,1,40.17,34ZM14,28H7a1,1,0,0,1,0-2h7Zm1-4H7V20.57l3.65,1.37a1.051,1.051,0,0,0,.7,0L15,20.57Zm-4-7.93L16.15,18,11,19.93,5.85,18ZM4,30h7a1,1,0,0,1,0,2H4Zm0,4h7a1,1,0,0,1,0,2H4Zm6,26H8V44h2Zm21,0H25V51a3,3,0,0,1,6,0Zm8,0H33V51a3,3,0,0,1,6,0Zm2-13a1,1,0,0,1-1,1h-.03a4.948,4.948,0,0,0-7.97.03A4.948,4.948,0,0,0,24.03,48H24a1,1,0,0,1-1-1V44H41ZM56,60H54V44h2Zm4-18H4V38H60Zm0-6H44V25a1,1,0,0,1,1-1H59a1,1,0,0,1,1,1Z"/><path d="M52,8a8.945,8.945,0,0,1,6.363,2.637l1.414-1.414a10.994,10.994,0,0,0-15.554,0l1.414,1.414A8.945,8.945,0,0,1,52,8Z"/><path d="M56.95,12.056a6.987,6.987,0,0,0-9.9,0l1.42,1.408a4.988,4.988,0,0,1,7.06,0Z"/><path d="M49.874,14.892l1.432,1.4a1,1,0,0,1,1.388,0l1.432-1.4A3.051,3.051,0,0,0,49.874,14.892Z"/></g></svg>
